<svg width="173" height="40" viewBox="0 0 173 40" fill="none" xmlns="http://www.w3.org/2000/svg">
<path d="M105.176 12.0012C106.8 5.44199 102.839 0.0141611 93.1333 0.0141611H72.0982L64.2171 32.0942L68.7918 39.9853H83.7559C93.5609 39.9853 101.157 35.3882 103.109 27.3968C104.093 23.3008 102.953 20.4366 100.387 19.0044V18.9042C102.82 17.3206 104.539 14.8427 105.176 12.0012ZM92.3495 27.139C91.9505 28.8146 90.8246 30.5332 86.1644 30.5332H76.6159L78.2833 23.6589H87.789C92.3923 23.6446 92.7343 25.4061 92.2925 27.139H92.3495ZM94.2592 12.216C93.9172 13.505 92.9338 15.0803 88.9149 15.0803H80.364L81.7892 9.49497H90.34C94.4017 9.46632 94.6012 10.7839 94.2592 12.216Z" fill="#14A0FF"/>
<path d="M10.1301 39.971H0.456055L12.5698 0.0141611L22.3606 0.0141611L10.1301 39.971Z" fill="white"/>
<path d="M56.3075 23.4154L52.4454 16.8419L71.1861 0.0141611H53.728L46.6023 6.88846L22.4318 29.1583L10.8311 39.971H27.3486L39.7616 28.8433L43.9373 36.004C45.3624 37.8085 47.3719 39.9997 55.8942 39.9997H65.8703L56.3218 23.4011L56.3075 23.4154Z" fill="white"/>
<path d="M45.2627 4.68296V4.59703C44.1934 3.09796 42.7666 1.89276 41.1132 1.09202C39.4598 0.291287 37.6327 -0.0793362 35.7997 0.0141613H22.9021L32.5219 16.4552L45.2627 4.68296Z" fill="white"/>
<path d="M101.957 40L111.637 0.000325528H142.874L140.677 9.28596H121.317L119.883 15.0002H139.279L137.092 24.2858H117.732L115.939 30.7144H139.279L137.092 40H101.957Z" fill="#14A0FF"/>
<path d="M139.545 40L148.047 0.0237628H158.694C163.316 0.0237628 166.856 0.935214 169.313 2.75812C171.771 4.58102 173 7.32448 173 10.9885C173 13.4312 172.596 15.4729 171.789 17.1135C170.982 18.7359 169.983 20.0392 168.791 21.0236C167.598 22.008 166.415 22.7554 165.242 23.2658L172.505 40H160.785L155.42 25.4532H153.411L150.303 40H139.545ZM155.145 17.3322H156.548C157.263 17.3322 157.96 17.232 158.639 17.0314C159.317 16.8127 159.923 16.4846 160.454 16.0471C161.005 15.5913 161.436 15.008 161.748 14.2971C162.078 13.5679 162.243 12.6929 162.243 11.6721C162.243 10.706 161.968 9.88566 161.417 9.21119C160.867 8.53671 159.904 8.19948 158.529 8.19948H157.071L155.145 17.3322Z" fill="#14A0FF"/>
</svg>
