<svg width="225" height="24" viewBox="0 0 225 24" fill="none" xmlns="http://www.w3.org/2000/svg">
<path d="M8.04626 16.4137H18.5523C24.3663 16.4137 27.3321 14.1069 28.8391 8.30705C30.3037 2.54012 28.5268 0.299262 22.5768 0.299262H6.49481L0.686572 23.1692H6.33057L8.04626 16.4137ZM9.20121 11.8661L10.9839 4.84689H20.4019C23.3599 4.84689 23.7642 6.06618 23.1951 8.30705C22.5674 10.7786 21.4752 11.8661 18.6192 11.8661H9.20121ZM40.2792 4.84689H52.0772C54.5932 4.84689 55.031 5.93437 54.4201 8.34C53.7924 10.8115 52.7169 11.8331 50.3029 11.8331H38.5049L40.2792 4.84689ZM56.7059 23.1692L57.9111 18.4239C58.5388 15.9523 57.2688 15.0626 55.1153 14.3046C57.1003 13.316 59.1769 11.8331 60.0641 8.34C61.7128 1.84809 58.6042 0.299262 53.7082 0.299262H35.7902L29.9819 23.1692H35.6259L37.35 16.3807H48.298C51.562 16.3807 52.5349 17.3694 51.9658 19.6102L51.0619 23.1692H56.7059ZM62.5028 23.1692H86.6088L87.7051 18.8523H69.2431L70.5738 13.6126H88.4578L89.4705 9.6252H71.5865L72.8586 4.61622H91.3206L92.417 0.299262H68.311L62.5028 23.1692ZM98.7685 0.299262L92.9602 23.1692H98.6042L103.258 4.84689H104.006L107.444 23.1692H115.468L128.214 4.84689H128.962L124.308 23.1692H129.952L135.76 0.299262H125.254L112.781 18.6216H112.441L109.274 0.299262H98.7685ZM148.362 0.299262H142.718L136.909 23.1692H142.553L148.362 0.299262ZM154.48 0.299262L150.739 15.0296C149.333 20.5659 151.46 23.1692 157.41 23.1692H167.78C173.866 23.1692 176.747 21.0602 178.279 15.0296L182.02 0.299262H176.376L172.777 14.4694C171.982 17.6 170.397 18.6216 167.609 18.6216H159.823C156.797 18.6216 155.713 17.6659 156.517 14.5024L160.124 0.299262H154.48ZM187.776 0.299262L181.968 23.1692H187.612L192.265 4.84689H193.013L196.452 23.1692H204.476L217.221 4.84689H217.969L213.316 23.1692H218.96L224.768 0.299262H214.262L201.789 18.6216H201.449L198.282 0.299262H187.776Z" fill="#171414"/>
<path d="M8.04626 16.4137L8.29242 15.4445H7.29242L7.04626 16.4137H8.04626ZM28.8391 8.30705L29.8377 8.31255L29.8391 8.30705H28.8391ZM6.49481 0.299262L6.74096 -0.669969H5.74096L5.49481 0.299262H6.49481ZM0.686572 23.1692H-0.313428L-0.559581 24.1385H0.440419L0.686572 23.1692ZM6.33057 23.1692L6.08442 24.1385H7.08442L7.33057 23.1692H6.33057ZM9.20121 11.8661H8.20121L7.95506 12.8353H8.95506L9.20121 11.8661ZM10.9839 4.84689L11.23 3.87766H10.23L9.98386 4.84689H10.9839ZM7.80011 17.3829H18.3061L18.7984 15.4445H8.29242L7.80011 17.3829ZM18.3061 17.3829C21.3178 17.3829 23.846 16.7905 25.8495 15.2163C27.8472 13.6466 29.0597 11.3066 29.8377 8.31255L27.8405 8.30154C27.1115 11.1074 26.0876 12.8207 24.7722 13.8544C23.4624 14.8835 21.6008 15.4445 18.7984 15.4445L18.3061 17.3829ZM29.8391 8.30705C30.5947 5.33169 30.5867 3.0068 29.3679 1.45301C28.1502 -0.0992997 25.8899 -0.669969 22.823 -0.669969L22.3307 1.26849C25.2137 1.26849 26.8168 1.81825 27.609 2.8281C28.4 3.83648 28.5481 5.51548 27.8391 8.30705H29.8391ZM22.823 -0.669969H6.74096L6.24865 1.26849H22.3307L22.823 -0.669969ZM5.49481 0.299262L-0.313428 23.1692H1.68657L7.49481 0.299262H5.49481ZM0.440419 24.1385H6.08442L6.57673 22.2H0.932726L0.440419 24.1385ZM7.33057 23.1692L9.04626 16.4137H7.04626L5.33057 23.1692H7.33057ZM10.2012 11.8661L11.9839 4.84689H9.98386L8.20121 11.8661H10.2012ZM10.7377 5.81612H20.1557L20.648 3.87766H11.23L10.7377 5.81612ZM20.1557 5.81612C21.5289 5.81612 22.0215 6.10451 22.2154 6.38837C22.423 6.69217 22.4665 7.23835 22.1951 8.30705H24.1951C24.4928 7.13488 24.6186 5.95098 24.0268 5.08492C23.4214 4.19892 22.2328 3.87766 20.648 3.87766L20.1557 5.81612ZM22.1951 8.30705C21.8947 9.48981 21.5442 10.0533 21.181 10.351C20.8358 10.634 20.205 10.8968 18.8654 10.8968L18.3731 12.8353C19.8894 12.8353 21.2327 12.5544 22.3046 11.6758C23.3584 10.8119 23.8678 9.59582 24.1951 8.30705H22.1951ZM18.8654 10.8968H9.44737L8.95506 12.8353H18.3731L18.8654 10.8968ZM40.2792 4.84689L40.5254 3.87766H39.5254L39.2792 4.84689H40.2792ZM38.5049 11.8331H37.5049L37.2588 12.8023H38.2588L38.5049 11.8331ZM56.7059 23.1692L56.4598 24.1385H57.4598L57.7059 23.1692H56.7059ZM55.1153 14.3046L54.8204 13.4692L52.6502 14.55L54.5655 15.2241L55.1153 14.3046ZM35.7902 0.299262L36.0363 -0.669969H35.0363L34.7902 0.299262H35.7902ZM29.9819 23.1692H28.9819L28.7358 24.1385H29.7358L29.9819 23.1692ZM35.6259 23.1692L35.3798 24.1385H36.3798L36.6259 23.1692H35.6259ZM37.35 16.3807L37.5961 15.4115H36.5961L36.35 16.3807H37.35ZM51.0619 23.1692H50.0619L49.8158 24.1385H50.8158L51.0619 23.1692ZM40.0331 5.81612H51.8311L52.3234 3.87766H40.5254L40.0331 5.81612ZM51.8311 5.81612C52.9695 5.81612 53.3455 6.06487 53.4958 6.31235C53.6745 6.60671 53.7157 7.17608 53.4201 8.34H55.4201C55.7354 7.09829 55.8632 5.92111 55.3467 5.07032C54.8018 4.17265 53.7009 3.87766 52.3234 3.87766L51.8311 5.81612ZM53.4201 8.34C53.1201 9.52113 52.7696 10.0894 52.4378 10.3778C52.1479 10.6299 51.6396 10.8639 50.5491 10.8639L50.0568 12.8023C51.3803 12.8023 52.6167 12.5255 53.6249 11.649C54.5913 10.8087 55.0924 9.63041 55.4201 8.34H53.4201ZM50.5491 10.8639H38.7511L38.2588 12.8023H50.0568L50.5491 10.8639ZM39.5049 11.8331L41.2792 4.84689H39.2792L37.5049 11.8331H39.5049ZM57.7059 23.1692L58.9111 18.4239H56.9111L55.7059 23.1692H57.7059ZM58.9111 18.4239C59.28 16.9712 59.1089 15.8635 58.4286 15.0253C57.7888 14.2372 56.7595 13.7704 55.665 13.3852L54.5655 15.2241C55.6245 15.5969 56.3069 15.9539 56.6837 16.418C57.0198 16.8321 57.1699 17.405 56.9111 18.4239H58.9111ZM55.4101 15.1401C56.4738 14.6103 57.6558 13.9028 58.6961 12.8C59.7467 11.6863 60.5795 10.248 61.0641 8.34H59.0641C58.6615 9.92506 58.0124 10.9749 57.3067 11.7231C56.5906 12.4821 55.7418 13.0104 54.8204 13.4692L55.4101 15.1401ZM61.0641 8.34C61.9287 4.93568 61.6022 2.59206 60.169 1.13988C58.7675 -0.280087 56.4719 -0.669969 53.9543 -0.669969L53.462 1.26849C55.8405 1.26849 57.5471 1.65303 58.5118 2.63045C59.4447 3.57566 59.8482 5.25241 59.0641 8.34H61.0641ZM53.9543 -0.669969H36.0363L35.544 1.26849H53.462L53.9543 -0.669969ZM34.7902 0.299262L28.9819 23.1692H30.9819L36.7902 0.299262H34.7902ZM29.7358 24.1385H35.3798L35.8721 22.2H30.2281L29.7358 24.1385ZM36.6259 23.1692L38.35 16.3807H36.35L34.6259 23.1692H36.6259ZM37.1038 17.35H48.0518L48.5441 15.4115H37.5961L37.1038 17.35ZM48.0518 17.35C49.6259 17.35 50.4061 17.5977 50.7675 17.9261C51.0716 18.2025 51.2071 18.66 50.9658 19.6102H52.9658C53.2936 18.3196 53.2272 17.1623 52.3712 16.3842C51.5723 15.6581 50.2341 15.4115 48.5441 15.4115L48.0518 17.35ZM50.9658 19.6102L50.0619 23.1692H52.0619L52.9658 19.6102H50.9658ZM50.8158 24.1385H56.4598L56.9521 22.2H51.3081L50.8158 24.1385ZM62.5028 23.1692H61.5028L61.2566 24.1385H62.2566L62.5028 23.1692ZM86.6088 23.1692L86.3626 24.1385H87.3626L87.6088 23.1692H86.6088ZM87.7051 18.8523H88.7051L88.9513 17.883H87.9513L87.7051 18.8523ZM69.2431 18.8523H68.2431L67.997 19.8215H68.997L69.2431 18.8523ZM70.5738 13.6126L70.82 12.6434H69.82L69.5738 13.6126H70.5738ZM88.4579 13.6126L88.2117 14.5818H89.2117L89.4579 13.6126H88.4579ZM89.4705 9.6252H90.4705L90.7167 8.65597H89.7167L89.4705 9.6252ZM71.5865 9.6252H70.5865L70.3404 10.5944H71.3404L71.5865 9.6252ZM72.8586 4.61622L73.1048 3.64698H72.1048L71.8586 4.61622H72.8586ZM91.3206 4.61622L91.0745 5.58545H92.0745L92.3206 4.61622H91.3206ZM92.417 0.299262H93.417L93.6632 -0.669969H92.6632L92.417 0.299262ZM68.311 0.299262L68.5572 -0.669969H67.5572L67.311 0.299262H68.311ZM62.2566 24.1385H86.3626L86.8549 22.2H62.7489L62.2566 24.1385ZM87.6088 23.1692L88.7051 18.8523H86.7051L85.6088 23.1692H87.6088ZM87.9513 17.883H69.4893L68.997 19.8215H87.459L87.9513 17.883ZM70.2431 18.8523L71.5738 13.6126H69.5738L68.2431 18.8523H70.2431ZM70.3277 14.5818H88.2117L88.704 12.6434H70.82L70.3277 14.5818ZM89.4579 13.6126L90.4705 9.6252H88.4705L87.4579 13.6126H89.4579ZM89.7167 8.65597H71.8327L71.3404 10.5944H89.2244L89.7167 8.65597ZM72.5865 9.6252L73.8586 4.61622H71.8586L70.5865 9.6252H72.5865ZM72.6125 5.58545H91.0745L91.5668 3.64698H73.1048L72.6125 5.58545ZM92.3206 4.61622L93.417 0.299262H91.417L90.3206 4.61622H92.3206ZM92.6632 -0.669969H68.5572L68.0649 1.26849H92.1709L92.6632 -0.669969ZM67.311 0.299262L61.5028 23.1692H63.5028L69.311 0.299262H67.311ZM98.7685 0.299262L99.0146 -0.669969H98.0146L97.7685 0.299262H98.7685ZM92.9602 23.1692H91.9602L91.7141 24.1385H92.7141L92.9602 23.1692ZM98.6042 23.1692L98.3581 24.1385H99.3581L99.6042 23.1692H98.6042ZM103.258 4.84689L103.504 3.87766H102.504L102.258 4.84689H103.258ZM104.006 4.84689L105.022 4.46548L104.911 3.87766H104.252L104.006 4.84689ZM107.444 23.1692L106.428 23.5506L106.538 24.1385H107.198L107.444 23.1692ZM115.468 23.1692L115.222 24.1385H115.882L116.291 23.5506L115.468 23.1692ZM128.214 4.84689L128.46 3.87766H127.8L127.391 4.46548L128.214 4.84689ZM128.962 4.84689H129.962L130.208 3.87766H129.208L128.962 4.84689ZM124.308 23.1692H123.308L123.062 24.1385H124.062L124.308 23.1692ZM129.952 23.1692L129.706 24.1385H130.706L130.952 23.1692H129.952ZM135.76 0.299262H136.76L137.007 -0.669969H136.007L135.76 0.299262ZM125.254 0.299262L125.501 -0.669969H124.832L124.425 -0.0712305L125.254 0.299262ZM112.781 18.6216L112.535 19.5908H113.204L113.611 18.9921L112.781 18.6216ZM112.441 18.6216L111.423 18.9921L111.527 19.5908H112.195L112.441 18.6216ZM109.274 0.299262L110.293 -0.0712305L110.189 -0.669969H109.521L109.274 0.299262ZM97.7685 0.299262L91.9602 23.1692H93.9602L99.7685 0.299262H97.7685ZM92.7141 24.1385H98.3581L98.8504 22.2H93.2064L92.7141 24.1385ZM99.6042 23.1692L104.258 4.84689H102.258L97.6042 23.1692H99.6042ZM103.011 5.81612H103.759L104.252 3.87766H103.504L103.011 5.81612ZM102.989 5.2283L106.428 23.5506L108.46 22.7878L105.022 4.46548L102.989 5.2283ZM107.198 24.1385H115.222L115.714 22.2H107.69L107.198 24.1385ZM116.291 23.5506L129.036 5.2283L127.391 4.46548L114.646 22.7878L116.291 23.5506ZM127.967 5.81612H128.715L129.208 3.87766H128.46L127.967 5.81612ZM127.962 4.84689L123.308 23.1692H125.308L129.962 4.84689H127.962ZM124.062 24.1385H129.706L130.198 22.2H124.554L124.062 24.1385ZM130.952 23.1692L136.76 0.299262H134.76L128.952 23.1692H130.952ZM136.007 -0.669969H125.501L125.008 1.26849H135.514L136.007 -0.669969ZM124.425 -0.0712305L111.951 18.2511L113.611 18.9921L126.084 0.669754L124.425 -0.0712305ZM113.027 17.6524H112.687L112.195 19.5908H112.535L113.027 17.6524ZM113.459 18.2511L110.293 -0.0712305L108.256 0.669754L111.423 18.9921L113.459 18.2511ZM109.521 -0.669969H99.0146L98.5223 1.26849H109.028L109.521 -0.669969ZM148.362 0.299262H149.362L149.608 -0.669969H148.608L148.362 0.299262ZM142.718 0.299262L142.964 -0.669969H141.964L141.718 0.299262H142.718ZM136.909 23.1692H135.909L135.663 24.1385H136.663L136.909 23.1692ZM142.553 23.1692L142.307 24.1385H143.307L143.553 23.1692H142.553ZM148.608 -0.669969H142.964L142.471 1.26849H148.115L148.608 -0.669969ZM141.718 0.299262L135.909 23.1692H137.909L143.718 0.299262H141.718ZM136.663 24.1385H142.307L142.799 22.2H137.155L136.663 24.1385ZM143.553 23.1692L149.362 0.299262H147.362L141.553 23.1692H143.553ZM154.48 0.299262L154.726 -0.669969H153.726L153.48 0.299262H154.48ZM182.02 0.299262H183.02L183.266 -0.669969H182.266L182.02 0.299262ZM176.376 0.299262L176.622 -0.669969H175.622L175.376 0.299262H176.376ZM160.124 0.299262H161.124L161.37 -0.669969H160.37L160.124 0.299262ZM153.48 0.299262L149.739 15.0296H151.739L155.48 0.299262H153.48ZM149.739 15.0296C148.999 17.9411 149.139 20.2793 150.445 21.8741C151.745 23.4615 154.059 24.1385 157.163 24.1385L157.656 22.2C154.81 22.2 153.086 21.5753 152.186 20.4769C151.293 19.386 151.072 17.6544 151.739 15.0296H149.739ZM157.163 24.1385H167.533L168.026 22.2H157.656L157.163 24.1385ZM167.533 24.1385C170.65 24.1385 173.231 23.6079 175.262 22.0528C177.298 20.4934 178.493 18.1251 179.279 15.0296H177.279C176.533 17.9647 175.522 19.6663 174.212 20.669C172.898 21.676 170.995 22.2 168.026 22.2L167.533 24.1385ZM179.279 15.0296L183.02 0.299262H181.02L177.279 15.0296H179.279ZM182.266 -0.669969H176.622L176.13 1.26849H181.774L182.266 -0.669969ZM175.376 0.299262L171.777 14.4694H173.777L177.376 0.299262H175.376ZM171.777 14.4694C171.405 15.9358 170.906 16.6516 170.415 17.0277C169.921 17.4062 169.16 17.6524 167.855 17.6524L167.362 19.5908C168.845 19.5908 170.27 19.3262 171.465 18.4113C172.662 17.494 173.354 16.1337 173.777 14.4694H171.777ZM167.855 17.6524H160.069L159.576 19.5908H167.362L167.855 17.6524ZM160.069 17.6524C158.614 17.6524 157.917 17.4116 157.592 17.0358C157.283 16.6776 157.139 15.99 157.517 14.5024H155.517C155.091 16.1783 155.087 17.5503 155.875 18.4608C156.647 19.3538 158.005 19.5908 159.576 19.5908L160.069 17.6524ZM157.517 14.5024L161.124 0.299262H159.124L155.517 14.5024H157.517ZM160.37 -0.669969H154.726L154.234 1.26849H159.878L160.37 -0.669969ZM187.776 0.299262L188.022 -0.669969H187.022L186.776 0.299262H187.776ZM181.968 23.1692H180.968L180.722 24.1385H181.722L181.968 23.1692ZM187.612 23.1692L187.366 24.1385H188.366L188.612 23.1692H187.612ZM192.265 4.84689L192.511 3.87766H191.511L191.265 4.84689H192.265ZM193.013 4.84689L194.03 4.46548L193.919 3.87766H193.259L193.013 4.84689ZM196.452 23.1692L195.436 23.5506L195.546 24.1385H196.206L196.452 23.1692ZM204.476 23.1692L204.23 24.1385H204.89L205.299 23.5506L204.476 23.1692ZM217.221 4.84689L217.467 3.87766H216.808L216.399 4.46548L217.221 4.84689ZM217.969 4.84689H218.969L219.215 3.87766H218.215L217.969 4.84689ZM213.316 23.1692H212.316L212.07 24.1385H213.07L213.316 23.1692ZM218.96 23.1692L218.714 24.1385H219.714L219.96 23.1692H218.96ZM224.768 0.299262H225.768L226.014 -0.669969H225.014L224.768 0.299262ZM214.262 0.299262L214.508 -0.669969H213.84L213.432 -0.0712305L214.262 0.299262ZM201.789 18.6216L201.543 19.5908H202.211L202.619 18.9921L201.789 18.6216ZM201.449 18.6216L200.431 18.9921L200.534 19.5908H201.203L201.449 18.6216ZM198.282 0.299262L199.3 -0.0712305L199.197 -0.669969H198.528L198.282 0.299262ZM186.776 0.299262L180.968 23.1692H182.968L188.776 0.299262H186.776ZM181.722 24.1385H187.366L187.858 22.2H182.214L181.722 24.1385ZM188.612 23.1692L193.265 4.84689H191.265L186.612 23.1692H188.612ZM192.019 5.81612H192.767L193.259 3.87766H192.511L192.019 5.81612ZM191.997 5.2283L195.436 23.5506L197.468 22.7878L194.03 4.46548L191.997 5.2283ZM196.206 24.1385H204.23L204.722 22.2H196.698L196.206 24.1385ZM205.299 23.5506L218.044 5.2283L216.399 4.46548L203.654 22.7878L205.299 23.5506ZM216.975 5.81612H217.723L218.215 3.87766H217.467L216.975 5.81612ZM216.969 4.84689L212.316 23.1692H214.316L218.969 4.84689H216.969ZM213.07 24.1385H218.714L219.206 22.2H213.562L213.07 24.1385ZM219.96 23.1692L225.768 0.299262H223.768L217.96 23.1692H219.96ZM225.014 -0.669969H214.508L214.016 1.26849H224.522L225.014 -0.669969ZM213.432 -0.0712305L200.959 18.2511L202.619 18.9921L215.092 0.669754L213.432 -0.0712305ZM202.035 17.6524H201.695L201.203 19.5908H201.543L202.035 17.6524ZM202.467 18.2511L199.3 -0.0712305L197.264 0.669754L200.431 18.9921L202.467 18.2511ZM198.528 -0.669969H188.022L187.53 1.26849H198.036L198.528 -0.669969Z" fill="white"/>
</svg>
