<svg width="18" height="20" viewBox="0 0 18 20" fill="none" xmlns="http://www.w3.org/2000/svg">
<path d="M9.69084 0.290438C9.32948 -0.0684083 8.75617 -0.0983708 8.35937 0.220853C6.25043 1.91751 5.42025 4.22183 5.13335 6.1634C4.96811 5.99853 4.82952 5.83674 4.71473 5.68731C4.5438 5.46481 4.42717 5.27157 4.3559 5.14032C4.32654 5.08626 4.29881 5.03137 4.27343 4.97533C4.22465 4.85172 4.15027 4.73586 4.05031 4.6359L3.34321 5.34301L2.6361 4.6359C0.948233 6.32377 0 8.613 0 11C0 13.387 0.948233 15.6762 2.6361 17.3641C4.32397 19.052 6.6132 20.0002 9.00021 20.0002C11.387 20.0002 13.676 19.0521 15.3639 17.3646C16.2007 16.5296 16.8648 15.5371 17.3171 14.445C17.7695 13.3528 18.0016 12.182 18.0002 10.9999C18.0015 9.8177 17.7692 8.64692 17.3166 7.55478C16.864 6.46244 16.2 5.47031 15.3628 4.63539C14.5502 3.82293 13.6154 3.2076 12.7261 2.62222L12.5399 2.49957C11.5747 1.86269 10.6216 1.2147 9.69084 0.290438ZM14.5221 15.3043C14.3455 15.5303 14.208 15.6951 14.0042 15.8984C12.6335 17.2034 10.9151 18.0002 9.00021 18.0002C7.14364 18.0002 5.36311 17.2627 4.05031 15.9499C2.73752 14.6371 2 12.8566 2 11C2 9.57455 2.43477 8.19391 3.23088 7.03539C3.72165 7.64271 4.46962 8.35275 5.55299 8.89443C5.86298 9.04943 6.23112 9.03286 6.52594 8.85066C6.82075 8.66845 7.00021 8.34658 7.00021 8.00001C7.00021 6.32097 7.37956 4.05122 8.9823 2.36038C9.11021 2.47163 9.23806 2.57903 9.36533 2.68275C10.0839 3.26836 10.7888 3.74029 11.4385 4.16894C11.5137 4.21856 11.5891 4.26809 11.6646 4.31765C12.4646 4.84312 13.2704 5.37238 13.9501 6.05114C14.601 6.70009 15.1171 7.47128 15.469 8.32036C15.8242 9.17773 16.0002 10.074 16.0002 11.0013C16.0014 11.9204 15.821 12.8306 15.4694 13.6797C15.228 14.2625 14.9088 14.8091 14.5221 15.3043ZM12.6926 13.5398C12.9455 12.9334 13.0452 12.2741 12.9828 11.62C12.9108 10.9662 12.6995 10.3399 12.3348 9.78979C11.9518 9.25181 11.4876 8.79682 10.9013 8.48027C10.3232 8.16811 9.67705 8.00317 9.02004 8.00002C8.58951 7.99795 8.20597 8.27169 8.06799 8.67952L7.28289 11H6.00024C5.44796 11 5.00024 11.4477 5.00024 12C5.00024 13.0219 5.39077 14.0477 6.17204 14.828C6.63656 15.2927 7.20838 15.6357 7.83697 15.8269C8.46555 16.0181 9.13155 16.0515 9.77611 15.9241C10.4207 15.7968 11.0239 15.5126 11.5326 15.0968C12.0413 14.6809 12.4397 14.1462 12.6926 13.5398ZM8.9475 12.3205L9.69104 10.1228C9.78012 10.1556 9.86703 10.1947 9.95107 10.2401C10.2401 10.3962 10.4863 10.6211 10.6678 10.8949C10.8493 11.1687 10.9606 11.483 10.9918 11.81C11.023 12.137 10.9732 12.4667 10.8467 12.7699C10.7203 13.0731 10.5211 13.3405 10.2667 13.5484C10.0124 13.7563 9.71076 13.8984 9.38848 13.962C9.0662 14.0257 8.7332 14.009 8.41891 13.9134C8.10461 13.8179 7.8187 13.6463 7.58645 13.414C7.45981 13.2876 7.35301 13.1478 7.26745 13H8.00024C8.42902 13 8.81008 12.7267 8.9475 12.3205Z" fill="white"/>
</svg>
