<svg width="21" height="20" viewBox="0 0 21 20" fill="none" xmlns="http://www.w3.org/2000/svg">
<path d="M3.74999 0.625C3.74999 0.45924 3.81583 0.300269 3.93304 0.183058C4.05025 0.065848 4.20923 0 4.37499 0L16.875 0C17.0407 0 17.1997 0.065848 17.3169 0.183058C17.4341 0.300269 17.5 0.45924 17.5 0.625C17.5 1.2975 17.485 1.9375 17.4575 2.545C17.9514 2.62679 18.4239 2.80665 18.8472 3.07398C19.2705 3.3413 19.636 3.69068 19.9221 4.10151C20.2082 4.51234 20.4092 4.9763 20.5131 5.46603C20.6171 5.95577 20.6219 6.46135 20.5273 6.95298C20.4328 7.44461 20.2407 7.91233 19.9625 8.32855C19.6843 8.74477 19.3256 9.10107 18.9074 9.37643C18.4893 9.6518 18.0203 9.84065 17.5281 9.93186C17.0358 10.0231 16.5302 10.0148 16.0412 9.9075C15.0537 12.2388 13.6937 13.3788 12.5 13.6713V16.3875L14.2812 16.8325C14.5237 16.8925 14.7525 17.0012 14.9525 17.1512L17.25 18.875C17.3549 18.9537 17.4324 19.0634 17.4716 19.1886C17.5107 19.3139 17.5094 19.4482 17.4679 19.5726C17.4264 19.6971 17.3468 19.8053 17.2404 19.882C17.134 19.9587 17.0062 20 16.875 20H4.37499C4.24381 20 4.11596 19.9587 4.00954 19.882C3.90313 19.8053 3.82354 19.6971 3.78206 19.5726C3.74058 19.4482 3.7393 19.3139 3.77841 19.1886C3.81753 19.0634 3.89504 18.9537 3.99999 18.875L6.29749 17.1512C6.49749 17.0012 6.72624 16.8925 6.96874 16.8325L8.74999 16.3875V13.6713C7.55624 13.3788 6.19624 12.2388 5.20874 9.90625C4.71947 10.0141 4.21355 10.0229 3.72085 9.93193C3.22815 9.84101 2.75867 9.65228 2.34013 9.37689C1.92158 9.1015 1.56247 8.74503 1.28399 8.32854C1.00552 7.91204 0.813323 7.44397 0.718763 6.95195C0.624203 6.45994 0.629194 5.95397 0.733443 5.46392C0.837691 4.97387 1.03908 4.50968 1.32572 4.09876C1.61236 3.68784 1.97844 3.33852 2.40233 3.07144C2.82623 2.80436 3.29934 2.62493 3.79374 2.54375C3.76431 1.90459 3.74972 1.26484 3.74999 0.625ZM3.87374 3.8C3.22147 3.91935 2.64333 4.29292 2.2665 4.83853C1.88967 5.38415 1.74501 6.05711 1.86436 6.70937C1.98371 7.36164 2.35728 7.93978 2.90289 8.31661C3.44851 8.69345 4.12147 8.8381 4.77374 8.71875C4.35749 7.40625 4.03874 5.78625 3.87374 3.8ZM16.4775 8.71875C17.1298 8.8381 17.8027 8.69345 18.3483 8.31661C18.8939 7.93978 19.2675 7.36164 19.3869 6.70937C19.5062 6.05711 19.3616 5.38415 18.9847 4.83853C18.6079 4.29292 18.0298 3.91935 17.3775 3.8C17.2112 5.7875 16.8925 7.40625 16.4775 8.71875Z" fill="white"/>
</svg>
