<svg width="25" height="25" viewBox="0 0 25 25" fill="none" xmlns="http://www.w3.org/2000/svg">
<path d="M13.4941 0.828014C13.2832 1.01551 11.6426 4.27137 11.6426 4.27137L10.4219 9.1952L15.1719 8.75965C15.1719 8.75965 19.123 1.412 19.2031 1.24208C19.3457 0.933483 19.4219 0.80653 18.877 0.80653C18.332 0.804577 13.6914 0.652233 13.4941 0.828014Z" fill="#176CC7"/>
<path d="M15.9529 8.45511C15.7166 8.32816 8.75565 8.21878 8.59159 8.45511C8.44315 8.66995 8.52713 9.7969 8.58377 9.93167C8.68534 10.166 10.9334 11.1875 10.9334 11.1875L10.8904 11.6524C10.8904 11.6524 11.074 11.6992 12.3806 11.6992C13.6873 11.6992 13.9451 11.6328 13.9451 11.6328L13.949 11.2129C13.949 11.2129 15.9724 10.2285 16.074 10.0918C16.1599 9.97854 16.1892 8.58206 15.9529 8.45511ZM13.8806 10.2364C13.8806 10.2364 13.9451 9.94925 13.8103 9.88284C13.6756 9.81448 11.3631 9.84573 11.1795 9.8555C10.9959 9.86526 10.9959 10.1934 10.9959 10.1934L9.51151 9.30862V9.16409L15.0389 9.20315L15.0486 9.36722L13.8806 10.2364Z" fill="#CECDD2"/>
<path d="M11.5742 9.99414C11.3906 9.99414 11.2852 10.1855 11.2852 10.5156C11.2852 10.8242 11.3906 11.084 11.623 11.0645C11.8145 11.0488 11.8809 10.7559 11.8633 10.4961C11.8457 10.1875 11.8066 9.99414 11.5742 9.99414Z" fill="#FDFFFF"/>
<path d="M5.6582 17.9472C5.6582 22.6269 9.96484 24.6132 12.7793 24.5292C16.0586 24.4316 19.5195 21.9433 19.2949 17.4785C19.082 13.248 15.4941 11.3671 12.4121 11.3886C8.83008 11.416 5.6582 13.8593 5.6582 17.9472Z" fill="#CECDD2"/>
<path d="M12.6036 23.6582C12.5548 23.6582 12.504 23.6582 12.4552 23.6562C10.9903 23.6074 9.54304 22.9902 8.48445 21.9648C7.35164 20.8672 6.73054 19.3828 6.73835 17.7871C6.75593 13.8906 10.1622 12.084 12.4727 12.084H12.4923C15.6231 12.0977 18.1934 14.5313 18.2657 17.8301C18.2969 19.2988 17.6954 20.8398 16.5157 22C15.4141 23.0801 13.9532 23.6582 12.6036 23.6582ZM12.4688 12.7324C10.3966 12.7324 7.3321 14.4277 7.32429 17.7871C7.31843 20.2988 9.26374 22.8809 12.504 22.9902C13.7384 23.0293 15.0098 22.5566 16.0372 21.5469C17.1036 20.498 17.7032 19.1465 17.6817 17.8379C17.6309 15 15.3106 12.7422 12.4942 12.7285C12.4903 12.7285 12.4747 12.7324 12.4688 12.7324Z" fill="#9B9B9D"/>
<path d="M11.3458 12.0058C11.211 11.8203 9.83014 11.873 8.34381 13.1523C6.86725 14.4238 6.64654 15.8301 6.91217 15.9043C7.2149 15.9883 7.58404 14.6289 8.85944 13.4863C10.0313 12.4414 11.6133 12.375 11.3458 12.0058Z" fill="#FEFFFA"/>
<path d="M17.1643 17.1327C16.6936 17.1991 17.1818 18.6093 16.09 20.1874C15.1428 21.5565 14.0686 22.0526 14.1936 22.3534C14.3615 22.7558 16.0822 21.7538 16.8791 20.121C17.5998 18.6444 17.5139 17.0839 17.1643 17.1327Z" fill="#FEFFFA"/>
<path d="M4.98235 0.726461C4.85931 0.839742 9.56438 9.21865 9.56438 9.21865C9.56438 9.21865 10.3534 9.32021 12.1152 9.33584C13.8769 9.35146 14.7499 9.23427 14.7499 9.23427C14.7499 9.23427 11.0917 0.810445 10.873 0.726461C10.7656 0.683492 9.31634 0.667867 7.90032 0.652242C6.48235 0.634664 5.09954 0.617086 4.98235 0.726461Z" fill="#2E9DF4"/>
<path d="M11.1036 16.8651C11.3067 16.8671 11.4884 16.5917 11.6563 16.4237C12.0138 16.0644 12.3888 15.7792 12.8165 16.1659C13.8673 17.121 11.7579 18.0897 10.9571 19.414C10.3595 20.4022 10.2384 21.162 10.4044 21.3651C10.5704 21.5683 14.6114 21.5585 14.6661 21.4569C14.7208 21.3554 14.7774 20.0019 14.6837 19.9374C14.5899 19.873 12.6036 19.9101 12.6036 19.9101C12.6036 19.9101 12.7696 19.5233 13.4513 18.9335C14.1993 18.287 14.7989 17.3983 14.6388 16.3476C14.3067 14.1757 12.1192 14.0956 11.172 14.8515C10.2481 15.5878 10.4474 16.8573 11.1036 16.8651Z" fill="#9B9B9D"/>
</svg>
