<svg width="25" height="25" viewBox="0 0 25 25" fill="none" xmlns="http://www.w3.org/2000/svg">
<path d="M13.4941 0.828014C13.2832 1.01551 11.6426 4.27137 11.6426 4.27137L10.4219 9.1952L15.1719 8.75965C15.1719 8.75965 19.123 1.412 19.2031 1.24208C19.3457 0.933483 19.4219 0.80653 18.877 0.80653C18.332 0.804577 13.6914 0.652233 13.4941 0.828014Z" fill="#176CC7"/>
<path d="M15.9529 8.45511C15.7166 8.32816 8.75565 8.21878 8.59159 8.45511C8.44315 8.66995 8.52713 9.7969 8.58377 9.93167C8.68534 10.166 10.9334 11.1875 10.9334 11.1875L10.8904 11.6524C10.8904 11.6524 11.074 11.6992 12.3806 11.6992C13.6873 11.6992 13.9451 11.6328 13.9451 11.6328L13.949 11.2129C13.949 11.2129 15.9724 10.2285 16.074 10.0918C16.1599 9.97854 16.1892 8.58206 15.9529 8.45511ZM13.8806 10.2364C13.8806 10.2364 13.9451 9.94925 13.8103 9.88284C13.6756 9.81448 11.3631 9.84573 11.1795 9.8555C10.9959 9.86526 10.9959 10.1934 10.9959 10.1934L9.53885 9.44339L9.51151 9.16409L15.0389 9.20315L15.0193 9.46683L13.8806 10.2364Z" fill="#F79429"/>
<path d="M11.5742 10.1348C11.3906 10.1348 11.2852 10.3262 11.2852 10.6563C11.2852 10.9648 11.3906 11.2246 11.623 11.2051C11.8145 11.1895 11.8809 10.8965 11.8633 10.6367C11.8457 10.3262 11.8066 10.1348 11.5742 10.1348Z" fill="#FDFFFF"/>
<path d="M5.72461 17.9863C5.72461 22.6659 9.96484 24.6132 12.7793 24.5292C16.0586 24.4316 19.5859 21.9433 19.2949 17.4784C19.0215 13.289 15.4941 11.3671 12.4121 11.3886C8.83008 11.4159 5.72461 13.8984 5.72461 17.9863Z" fill="#F79429"/>
<path d="M12.6309 23.8223C12.5821 23.8223 12.5313 23.8223 12.4825 23.8203C11.0176 23.7715 9.57039 23.1543 8.51179 22.1289C7.37898 21.0313 6.75789 19.5469 6.7657 17.9512C6.78328 14.0547 10.1895 12.248 12.5001 12.248H12.5196C15.6505 12.2617 18.2208 14.6953 18.293 17.9941C18.3243 19.4629 17.8555 20.9238 16.6759 22.084C15.5743 23.1621 13.9805 23.8223 12.6309 23.8223ZM12.4962 12.8965C10.4239 12.8965 7.35945 14.5918 7.35164 17.9512C7.34578 20.4629 9.29109 23.0449 12.5313 23.1543C13.7657 23.1934 15.1583 22.7363 16.1837 21.7285C17.2501 20.6797 17.7286 19.3125 17.7071 18.0039C17.6602 15.166 15.3399 12.9082 12.5235 12.8965C12.5177 12.8926 12.502 12.8965 12.4962 12.8965Z" fill="#D25116"/>
<path d="M11.3458 12.0058C11.211 11.8203 9.83014 11.873 8.34381 13.1523C6.86725 14.4238 6.64654 15.8301 6.91217 15.9043C7.2149 15.9883 7.58404 14.6289 8.85944 13.4863C10.0313 12.4414 11.6133 12.375 11.3458 12.0058Z" fill="#FEFFFA"/>
<path d="M17.2815 17.1172C16.8108 17.1836 17.299 18.5937 16.2072 20.1719C15.26 21.541 14.1857 22.0371 14.3107 22.3379C14.4787 22.7402 16.1994 21.7383 16.9963 20.1055C17.717 18.6269 17.6311 17.0664 17.2815 17.1172Z" fill="#FEFFFA"/>
<path d="M4.98235 0.726461C4.85931 0.839742 9.56438 9.21865 9.56438 9.21865C9.56438 9.21865 10.3534 9.32021 12.1152 9.33584C13.8769 9.35146 14.7499 9.23427 14.7499 9.23427C14.7499 9.23427 11.0917 0.810445 10.873 0.726461C10.7656 0.683492 9.31634 0.667867 7.90032 0.652242C6.48235 0.634664 5.09954 0.617086 4.98235 0.726461Z" fill="#2E9DF4"/>
<path d="M14.6385 16.3496C14.412 14.3867 12.1268 14.2226 11.1796 14.9765C10.2577 15.7109 10.3456 16.7344 10.992 16.8535C11.5018 16.9473 11.6346 16.543 11.7831 16.3574C12.119 15.9414 12.6542 15.9023 13.0038 16.2363C13.4003 16.6172 13.1561 17.5273 12.5604 17.5644C12.117 17.5918 11.8924 17.5683 11.8358 17.6445C11.7557 17.7519 11.7674 18.5976 11.8495 18.6914C11.9432 18.7988 12.3182 18.7324 12.6405 18.7441C13.0838 18.7617 13.5545 19.418 13.244 19.9101C12.9217 20.4199 12.0643 20.1914 11.7557 19.8828C11.3475 19.4746 10.9393 19.709 10.8026 19.8691C10.5878 20.123 10.3592 20.7012 11.1522 21.2637C11.9432 21.8262 14.3436 21.9336 14.828 20.1914C15.2499 18.6699 14.2655 18.0449 14.2655 18.0449C14.2655 18.0449 14.7674 17.4687 14.6385 16.3496Z" fill="#D25116"/>
</svg>
