<svg width="19" height="18" viewBox="0 0 19 18" fill="none" xmlns="http://www.w3.org/2000/svg">
<path d="M9.90493 5.9829L9.33701 4.23538L8.76848 5.98475C8.57221 6.5867 8.19052 7.11112 7.67805 7.48294C7.16573 7.85466 6.54897 8.05481 5.91601 8.05475H4.07876L5.56538 9.13457C6.07776 9.50706 6.45974 10.0326 6.65536 10.6352C6.85093 11.2375 6.85087 11.8862 6.6552 12.4885L6.08771 14.2359L7.57301 13.157C8.08555 12.7846 8.70346 12.5836 9.33701 12.5836C9.97056 12.5836 10.5878 12.7842 11.1004 13.1566L12.5863 14.2359L12.019 12.489C11.8233 11.8868 11.8231 11.2375 12.0187 10.6352C12.2143 10.0327 12.5956 9.50753 13.108 9.13505L14.5953 8.05475H12.7555C12.1229 8.05428 11.5066 7.85384 10.9948 7.48206C10.4848 7.11169 10.1003 6.58198 9.90493 5.9829ZM13.921 11.8708L15.439 16.5448C15.739 17.4668 14.684 18.2327 13.901 17.6628L9.92501 14.7747C9.75412 14.6505 9.54828 14.5836 9.33701 14.5836C9.12574 14.5836 8.9199 14.6505 8.74901 14.7747L4.77301 17.6628C3.99001 18.2327 2.93501 17.4657 3.23501 16.5448L4.75301 11.8708C4.81829 11.6699 4.81833 11.4536 4.75312 11.2528C4.68791 11.052 4.5608 10.8769 4.39001 10.7528L0.414009 7.86475C-0.369991 7.29475 0.0340095 6.05475 1.00201 6.05475H5.91601C6.12706 6.05481 6.33271 5.98809 6.50353 5.86415C6.67436 5.74021 6.80158 5.5654 6.86701 5.36475L8.38601 0.69075C8.68601 -0.23025 9.98901 -0.23025 10.288 0.69075L11.807 5.36475C11.8724 5.56524 11.9995 5.73993 12.1701 5.86385C12.3407 5.98778 12.5461 6.05459 12.757 6.05475H17.672C18.641 6.05475 19.043 7.29475 18.26 7.86475L14.284 10.7528C14.1132 10.8769 13.9861 11.052 13.9209 11.2528C13.8557 11.4536 13.8557 11.6699 13.921 11.8708Z" fill="white"/>
</svg>
