<svg width="20" height="20" viewBox="0 0 20 20" fill="none" xmlns="http://www.w3.org/2000/svg">
<path d="M11.9131 1.8039C11.4571 -0.0680977 8.79309 -0.0680977 8.33709 1.8039C8.26901 2.0852 8.13548 2.34645 7.94736 2.5664C7.75924 2.78634 7.52185 2.95876 7.2545 3.06963C6.98716 3.18049 6.69742 3.22667 6.40886 3.20441C6.12029 3.18215 5.84106 3.09207 5.59389 2.9415C3.94749 1.9383 2.06349 3.8223 3.06669 5.4687C3.71469 6.5319 3.13989 7.9191 1.93029 8.2131C0.0570906 8.6679 0.0570906 11.3331 1.93029 11.7867C2.21166 11.8549 2.47296 11.9885 2.6929 12.1768C2.91285 12.3651 3.08522 12.6026 3.19598 12.8701C3.30674 13.1376 3.35276 13.4274 3.33029 13.7161C3.30783 14.0047 3.21751 14.284 3.06669 14.5311C2.06349 16.1775 3.94749 18.0615 5.59389 17.0583C5.84102 16.9075 6.12027 16.8172 6.40891 16.7947C6.69755 16.7722 6.98742 16.8183 7.25491 16.929C7.52239 17.0398 7.75994 17.2121 7.9482 17.4321C8.13647 17.652 8.27012 17.9133 8.33829 18.1947C8.79309 20.0679 11.4583 20.0679 11.9119 18.1947C11.9803 17.9135 12.1141 17.6524 12.3024 17.4326C12.4907 17.2128 12.7282 17.0405 12.9956 16.9298C13.263 16.8191 13.5528 16.773 13.8413 16.7953C14.1299 16.8177 14.4091 16.9078 14.6563 17.0583C16.3027 18.0615 18.1867 16.1775 17.1835 14.5311C17.0329 14.2839 16.9428 14.0047 16.9205 13.7161C16.8982 13.4276 16.9442 13.1378 17.055 12.8704C17.1657 12.603 17.338 12.3655 17.5578 12.1772C17.7775 11.9889 18.0387 11.8551 18.3199 11.7867C20.1931 11.3319 20.1931 8.6667 18.3199 8.2131C18.0385 8.14494 17.7772 8.01128 17.5573 7.82302C17.3373 7.63475 17.165 7.39721 17.0542 7.12972C16.9434 6.86223 16.8974 6.57236 16.9199 6.28372C16.9424 5.99508 17.0327 5.71583 17.1835 5.4687C18.1867 3.8223 16.3027 1.9383 14.6563 2.9415C14.4092 3.09232 14.1299 3.18264 13.8413 3.20511C13.5526 3.22757 13.2628 3.18155 12.9953 3.07079C12.7278 2.96003 12.4902 2.78766 12.302 2.56772C12.1137 2.34777 11.9801 2.08648 11.9119 1.8051L11.9131 1.8039ZM10.1251 13.5999C9.17031 13.5999 8.25464 13.2206 7.57951 12.5455C6.90438 11.8704 6.52509 10.9547 6.52509 9.9999C6.52509 9.04512 6.90438 8.12945 7.57951 7.45432C8.25464 6.77919 9.17031 6.3999 10.1251 6.3999C11.0799 6.3999 11.9955 6.77919 12.6707 7.45432C13.3458 8.12945 13.7251 9.04512 13.7251 9.9999C13.7251 10.9547 13.3458 11.8704 12.6707 12.5455C11.9955 13.2206 11.0799 13.5999 10.1251 13.5999Z" fill="white"/>
</svg>
