<svg width="22" height="21" viewBox="0 0 22 21" fill="none" xmlns="http://www.w3.org/2000/svg">
<path d="M9.95059 1.46705C10.3706 0.17765 12.1948 0.17765 12.6134 1.46705L14.1114 6.07585C14.2029 6.35653 14.3808 6.6011 14.6197 6.7746C14.8586 6.94809 15.1462 7.04163 15.4414 7.04185H20.2882C21.6448 7.04185 22.2076 8.77785 21.1114 9.57585L17.1914 12.4234C16.952 12.5971 16.7738 12.8421 16.6823 13.1232C16.5907 13.4044 16.5906 13.7074 16.6818 13.9886L18.1798 18.5974C18.5998 19.8868 17.1228 20.9606 16.0238 20.1626L12.1038 17.315C11.8647 17.1415 11.5768 17.048 11.2813 17.048C10.9858 17.048 10.6979 17.1415 10.4588 17.315L6.5388 20.1626C5.4412 20.9606 3.96559 19.8868 4.38419 18.5974L5.88219 13.9886C5.97344 13.7074 5.97328 13.4044 5.88173 13.1232C5.79018 12.8421 5.61195 12.5971 5.37259 12.4234L1.45399 9.57725C0.357795 8.77925 0.921995 7.04325 2.2772 7.04325H7.12259C7.41806 7.04333 7.70598 6.94992 7.94513 6.77641C8.18428 6.60289 8.3624 6.35816 8.454 6.07725L9.95059 1.46705Z" fill="white"/>
</svg>
