<svg width="20" height="20" viewBox="0 0 20 20" fill="none" xmlns="http://www.w3.org/2000/svg">
<path d="M2.76347 0.0130832C2.72793 0.0183049 2.61162 0.035469 2.50501 0.0512373C2.39839 0.0670055 2.21051 0.112785 2.08748 0.152981C1.06532 0.486932 0.305383 1.32859 0.0697655 2.38765C-0.0364898 2.86522 -0.0183971 4.66006 0.10378 5.76102C0.454544 8.92194 1.70138 11.8373 3.74655 14.2785C6.41508 17.4637 10.2138 19.4829 14.3444 19.9117C15.3339 20.0144 17.1507 20.0315 17.5729 19.942C18.7713 19.6882 19.656 18.8152 19.9332 17.6131C19.9842 17.3916 19.9872 17.2914 19.9965 15.5322C20.0068 13.5781 20.0008 13.4415 19.8888 13.0883C19.7939 12.7893 19.6596 12.578 19.3958 12.3127C19.2076 12.1235 19.1187 12.0562 18.9305 11.9605C18.7653 11.8764 18.0052 11.6115 16.3071 11.0462L13.9163 10.2503L13.5922 10.2384C13.3219 10.2285 13.232 10.2355 13.0495 10.2809C12.5667 10.4008 12.1118 10.7148 11.8522 11.1073C11.7893 11.2022 11.5842 11.5882 11.3962 11.9649C11.2082 12.3417 11.0508 12.6539 11.0464 12.6588C11.0088 12.6997 10.2332 12.1897 9.75104 11.8071C9.12672 11.3117 8.32173 10.4575 7.84739 9.78689C7.64796 9.50495 7.33863 9.01396 7.33845 8.97909C7.33837 8.96474 7.66109 8.79191 8.05556 8.59499C8.45003 8.3981 8.84388 8.18646 8.93078 8.12471C9.19702 7.93547 9.41959 7.6718 9.56154 7.37748C9.73109 7.02592 9.77795 6.79739 9.76252 6.39736L9.75045 6.08414L8.93186 3.62843C8.01932 0.890884 8.04809 0.960988 7.68929 0.601808C7.36633 0.278559 6.98812 0.0870906 6.54627 0.0232162C6.38274 -0.00043614 2.91871 -0.00969025 2.76347 0.0130832ZM7.03193 4.26009C7.44155 5.48898 7.77401 6.49681 7.77073 6.4997C7.76747 6.5026 7.23695 6.76877 6.59182 7.09119C5.31052 7.73156 5.22236 7.78856 5.0816 8.06763C4.89566 8.43625 4.9304 8.69622 5.2517 9.34119C6.07855 11.0009 7.30306 12.4694 8.80436 13.6017C9.62525 14.2209 10.9069 14.9388 11.3314 15.0173C11.6246 15.0715 11.9635 14.9608 12.1862 14.738C12.2857 14.6385 12.4002 14.4284 12.9001 13.4279C13.2276 12.7725 13.4979 12.2337 13.5008 12.2304C13.5037 12.2271 14.5114 12.5596 15.7401 12.9693L17.9742 13.7141V15.4826V17.2512L17.8918 17.425C17.7931 17.6335 17.6275 17.8025 17.4241 17.9024L17.2763 17.975L16.3846 17.9833C15.8881 17.9879 15.3039 17.9786 15.0664 17.9623C12.3269 17.7738 9.79702 16.8382 7.60971 15.2046C6.65351 14.4905 5.64446 13.4941 4.90463 12.5336C3.4474 10.6417 2.48407 8.35327 2.14613 5.98075C2.04444 5.26691 2.02684 4.95041 2.02684 3.83523V2.74955L2.09921 2.59445C2.18187 2.41722 2.36714 2.21412 2.51651 2.13689C2.75654 2.01281 2.70059 2.01601 4.54471 2.02103L6.28719 2.02576L7.03193 4.26009Z" fill="white"/>
</svg>
