<svg width="20" height="18" viewBox="0 0 20 18" fill="none" xmlns="http://www.w3.org/2000/svg">
<path d="M7.40204 1.50005C8.55699 -0.499365 11.4429 -0.499365 12.5979 1.50005L19.5259 13.5C20.681 15.4998 19.2378 18.0002 16.928 18.0002H3.07196C0.76222 18.0002 -0.680997 15.5 0.473927 13.5002C0.473965 13.5002 0.473888 13.5003 0.473927 13.5002L7.40204 1.50005ZM9.13387 2.50043L2.20599 14.5002C1.82113 15.1665 2.30177 16.0002 3.07196 16.0002H16.928C17.6981 16.0002 18.1789 15.1667 17.794 14.5004L10.866 2.50043C10.481 1.83384 9.51892 1.83384 9.13387 2.50043ZM9.99996 6.00024C10.5522 6.00024 11 6.44795 11 7.00024V9.00024C11 9.55252 10.5522 10.0002 9.99996 10.0002C9.44767 10.0002 8.99996 9.55252 8.99996 9.00024V7.00024C8.99996 6.44795 9.44767 6.00024 9.99996 6.00024ZM8.99996 13.0002C8.99996 12.448 9.44767 12.0002 9.99996 12.0002H10.01C10.5622 12.0002 11.01 12.448 11.01 13.0002C11.01 13.5525 10.5622 14.0002 10.01 14.0002H9.99996C9.44767 14.0002 8.99996 13.5525 8.99996 13.0002Z" fill="white"/>
</svg>
