<svg width="21" height="21" viewBox="0 0 21 21" fill="none" xmlns="http://www.w3.org/2000/svg">
<path d="M9.62517 12.6128C9.62517 12.8448 9.71736 13.0674 9.88145 13.2315C10.0455 13.3956 10.2681 13.4878 10.5002 13.4878C10.7322 13.4878 10.9548 13.3956 11.1189 13.2315C11.283 13.0674 11.3752 12.8448 11.3752 12.6128V6.3495L14.2128 9.18713L15.45 7.94987L10.5002 3L5.55029 7.94987L6.78754 9.18713L9.62517 6.35125V12.6136V12.6128Z" fill="white"/>
<path d="M3.5 12.25H5.25V15.75H15.75V12.25H17.5V15.75C17.5 16.2141 17.3156 16.6592 16.9874 16.9874C16.6592 17.3156 16.2141 17.5 15.75 17.5H5.25C4.78587 17.5 4.34075 17.3156 4.01256 16.9874C3.68437 16.6592 3.5 16.2141 3.5 15.75V12.25Z" fill="white"/>
</svg>
